<svg width="412" height="383" viewBox="0 0 412 383" fill="none" xmlns="http://www.w3.org/2000/svg">
<circle cx="83" cy="83" r="79" fill="#BC2DDC" stroke="white" stroke-width="8"/>
<circle cx="329" cy="83" r="79" fill="#BC2DDC" stroke="white" stroke-width="8"/>
<circle cx="206" cy="206" r="173" fill="#BC2DDC" stroke="white" stroke-width="8"/>
<path d="M284.163 114.208C284.679 117.13 285.022 119.193 285.194 120.396C285.538 121.427 285.71 122.889 285.71 124.779C285.71 130.452 284.421 135.781 281.842 140.766C279.436 145.58 276.083 149.018 271.786 151.08C268.348 146.439 264.136 142.485 259.151 139.219C254.166 135.781 248.665 133.031 242.649 130.968C236.804 128.733 230.701 127.1 224.341 126.069C217.981 125.037 211.792 124.522 205.776 124.522C199.759 124.522 194.086 125.037 188.757 126.069C183.6 126.928 178.959 128.217 174.833 129.936C170.88 131.484 167.7 133.46 165.293 135.867C163.058 138.274 161.941 141.024 161.941 144.118C162.457 147.9 164.777 151.768 168.903 155.722C173.028 159.504 178.1 163.285 184.116 167.067C190.133 170.677 196.751 174.287 203.971 177.897C211.363 181.507 218.582 184.945 225.63 188.211C234.397 192.337 241.961 196.205 248.321 199.814C254.682 203.253 259.925 207.12 264.05 211.418C268.176 215.543 271.27 220.271 273.333 225.6C275.396 230.929 276.427 237.375 276.427 244.939C276.427 253.706 274.966 261.957 272.044 269.692C269.121 277.256 264.824 283.874 259.151 289.547C253.65 295.22 246.946 299.603 239.039 302.698C231.131 305.964 222.278 307.597 212.48 307.597C202.853 307.597 192.453 306.136 181.28 303.213C170.106 300.291 159.62 296.251 149.822 291.094C140.195 286.109 132.116 280.35 125.584 273.818C119.223 267.114 116.043 260.066 116.043 252.674C116.043 249.236 116.989 244.853 118.879 239.524C120.942 234.195 124.552 228.608 129.709 222.763C130.225 227.92 132.975 234.023 137.961 241.071C143.118 248.119 150.767 254.651 160.909 260.668C170.364 266.168 180.076 270.208 190.047 272.787C200.189 275.193 209.643 276.397 218.41 276.397C228.037 276.397 235.858 275.193 241.875 272.787C247.892 270.38 252.619 267.544 256.057 264.278C259.495 260.84 261.902 257.402 263.277 253.963C264.652 250.525 265.426 247.775 265.597 245.712C265.426 242.274 263.792 239.008 260.698 235.914C257.776 232.648 253.736 229.553 248.579 226.631C243.594 223.537 237.749 220.443 231.045 217.348C224.341 214.254 217.379 211.16 210.159 208.066C199.329 203.253 189.961 198.783 182.053 194.657C174.318 190.36 167.871 186.062 162.714 181.765C157.729 177.295 154.033 172.654 151.627 167.841C149.392 163.028 148.275 157.527 148.275 151.338C148.275 141.712 151.197 132.601 157.042 124.006C162.886 115.411 171.309 108.879 182.311 104.409C187.812 102.002 193.657 100.283 199.845 99.2521C206.205 98.2207 212.394 97.705 218.41 97.705C229.756 97.705 240.844 99.2521 251.673 102.346C262.503 105.441 273.333 109.394 284.163 114.208Z" fill="white"/>
</svg>
